<svg xmlns="http://www.w3.org/2000/svg" viewBox="0 0 499.8 106.46"><defs><style>.cls-1{fill:#ad2f89;}.cls-2{fill:#7bc7bc;}.cls-3{fill:#e5616e;}.cls-4{fill:#673164;}.cls-5{fill:#f5ab61;}.cls-6{fill:#fff;}</style></defs><title>chosa-color_2</title><g id="Calque_2" data-name="Calque 2"><g id="Retenue"><path class="cls-1" d="M114.28,96.38Q103.9,86.3,103.9,69a39.71,39.71,0,0,1,5-20.17A34.24,34.24,0,0,1,123.1,35.29a44.5,44.5,0,0,1,20.83-4.74,48.84,48.84,0,0,1,12.46,1.63,39.65,39.65,0,0,1,11,4.59,9.4,9.4,0,0,1,4.6,8.6,12.25,12.25,0,0,1-2.15,7.49,6.64,6.64,0,0,1-5.56,2.89,14.05,14.05,0,0,1-4.3-.66,29.19,29.19,0,0,1-4.6-2,51.74,51.74,0,0,0-5-2,15.17,15.17,0,0,0-4.6-.66Q131,50.42,131,68.36q0,8.9,3.78,13.56t10.9,4.68a15.83,15.83,0,0,0,4.67-.67,32.77,32.77,0,0,0,4.82-2c2-.89,3.58-1.56,4.82-2a12.12,12.12,0,0,1,4.08-.66,6.63,6.63,0,0,1,5.56,2.89,12.25,12.25,0,0,1,2.15,7.49,11,11,0,0,1-1.19,5.11,8.23,8.23,0,0,1-3.26,3.49q-10.23,6.23-24.91,6.22Q124.66,106.46,114.28,96.38Z"/><path class="cls-2" d="M250.1,38.33q6.22,7.79,6.23,23.65V94a11.49,11.49,0,0,1-3.56,8.9q-3.56,3.25-9.64,3.26t-9.64-3.26a11.48,11.48,0,0,1-3.55-8.9V61.39q0-10.68-9.2-10.68a12.17,12.17,0,0,0-9.41,3.78q-3.5,3.78-3.49,10.16V94a11.46,11.46,0,0,1-3.56,8.9q-3.56,3.25-9.64,3.26T185,102.91a11.46,11.46,0,0,1-3.56-8.9V11.86a10.91,10.91,0,0,1,3.71-8.52Q188.87,0,194.94,0a13.68,13.68,0,0,1,9.34,3.11,10.48,10.48,0,0,1,3.56,8.31V41.07a25.67,25.67,0,0,1,9.94-7.86,32.29,32.29,0,0,1,13.34-2.66Q243.87,30.55,250.1,38.33Z"/><path class="cls-3" d="M286.8,101.79a33.46,33.46,0,0,1-14.09-13.27,39.59,39.59,0,0,1-5-20.16q0-11.56,5-20.1a33.35,33.35,0,0,1,14-13.12q9-4.59,21.2-4.59t21.2,4.59a33.41,33.41,0,0,1,14,13.12q5,8.54,5,20.1a39.59,39.59,0,0,1-5,20.16,33.63,33.63,0,0,1-14,13.27q-9,4.68-21.2,4.67A45.65,45.65,0,0,1,286.8,101.79ZM322,68.36Q322,50,307.93,50T293.84,68.36q0,18.39,14.09,18.38T322,68.36Z"/><path class="cls-4" d="M372.13,105a37.2,37.2,0,0,1-12-4.74,7.23,7.23,0,0,1-3.26-3.56A13.09,13.09,0,0,1,355.67,91a10,10,0,0,1,2.15-6.6,6.78,6.78,0,0,1,5.42-2.59,15.78,15.78,0,0,1,4.15.52,39.53,39.53,0,0,1,4.74,1.7q4.75,1.64,8.38,2.53a40.19,40.19,0,0,0,9.27.88,14.7,14.7,0,0,0,6.3-1.11,3.47,3.47,0,0,0,2.3-3.19,3.06,3.06,0,0,0-1.11-2.52A12.28,12.28,0,0,0,393,79q-3.1-.81-10.53-2.3-13.2-2.52-19.05-7.64T357.6,54.57a19.66,19.66,0,0,1,4.23-12.31,28,28,0,0,1,11.64-8.6,42.39,42.39,0,0,1,16.61-3.11,51.46,51.46,0,0,1,13,1.63,42,42,0,0,1,11.2,4.59q4.59,2.67,4.59,8.6a10.89,10.89,0,0,1-2.22,7,6.76,6.76,0,0,1-5.49,2.82,22.27,22.27,0,0,1-9.19-2.52,49.86,49.86,0,0,0-6.3-2.45,22.9,22.9,0,0,0-6.45-.81,12.44,12.44,0,0,0-5.79,1.11,3.47,3.47,0,0,0-2.07,3.19q0,2.37,2.89,3.7t11.49,3Q410.1,62.87,416,68T422,82.74A20.23,20.23,0,0,1,413,100q-9,6.45-24.09,6.45A80.3,80.3,0,0,1,372.13,105Z"/><path class="cls-5" d="M491.72,38.63q8.08,8.09,8.08,24.54v31q0,5.64-3.33,8.82t-9.27,3.19a12.36,12.36,0,0,1-8.53-3,11.1,11.1,0,0,1-3.63-8,16.49,16.49,0,0,1-7,8.3,22.15,22.15,0,0,1-11.71,3,30.06,30.06,0,0,1-13.65-3A23.65,23.65,0,0,1,433.15,95a22.09,22.09,0,0,1-3.48-12.23q0-7.86,4.07-12.53t13-6.75q8.89-2.07,24-2.07h4V59.61q0-5.19-2.37-7.49t-8-2.3q-6.08,0-17.79,4.15a18,18,0,0,1-5.78,1.19,7.34,7.34,0,0,1-5.94-2.67,10.54,10.54,0,0,1-2.22-7A9.74,9.74,0,0,1,434,40.18a11.54,11.54,0,0,1,4.3-3.7,51.58,51.58,0,0,1,13-4.3,75.6,75.6,0,0,1,15.43-1.63Q483.63,30.55,491.72,38.63ZM471.33,85a14,14,0,0,0,3.41-9.71V73.55h-2.37q-9.5,0-13.49,1.7t-4,5.71A7.81,7.81,0,0,0,457,86.6a7.4,7.4,0,0,0,5.56,2.22A11.25,11.25,0,0,0,471.33,85Z"/><path class="cls-6" d="M39.63,61a6.43,6.43,0,0,0-4.5,1.79A5.87,5.87,0,0,0,33.29,67a6.2,6.2,0,0,0,6.34,6.06h0a6.43,6.43,0,0,0,4.5-1.79A5.87,5.87,0,0,0,46,67,6.21,6.21,0,0,0,39.63,61Z"/><path class="cls-3" d="M39.63,58.07a9.53,9.53,0,0,1,2.8.42c2.54-6.85,3.82-16.61-2.54-26.75H5.08l29.11,28A9.42,9.42,0,0,1,39.63,58.07Z"/><path class="cls-4" d="M33.34,62.4,20,49.53,7.37,61.67A40.42,40.42,0,0,1,33.34,62.4Z"/><path class="cls-4" d="M44.57,60.72,57.65,48.13,45.3,36.23a35.52,35.52,0,0,1-.73,24.48Z"/><path class="cls-1" d="M48.9,67a8.74,8.74,0,0,1-.41,2.65c7.14,2.44,17.31,3.67,27.86-2.46V33.71L47.16,61.82A8.75,8.75,0,0,1,48.9,67Z"/><path class="cls-4" d="M46,71.72,59.29,84.53,71.85,72.44a38.07,38.07,0,0,1-11.59,1.81A43.18,43.18,0,0,1,46,71.72Z"/><path class="cls-2" d="M30.37,67a8.72,8.72,0,0,1,.41-2.64C23.64,62,13.47,60.73,2.92,66.86v33.52L32.11,72.27A8.76,8.76,0,0,1,30.37,67Z"/><path class="cls-4" d="M34.51,73.72,21.81,86l12,11.57a34.49,34.49,0,0,1,.71-23.8Z"/><path class="cls-5" d="M39.64,76h0a9.51,9.51,0,0,1-2.79-.42C34.3,82.45,33,92.22,39.38,102.35H74.19l-29.11-28A9.42,9.42,0,0,1,39.64,76Z"/><path class="cls-4" d="M41.09,105.27H77.81a1.46,1.46,0,0,0,1-2.51L61.36,85.94,78.82,69.11a1.43,1.43,0,0,0,.45-1V30.28a1.46,1.46,0,0,0-2.47-1.05L59.25,46.13,41.7,29.23a1.46,1.46,0,0,0-1-.41H1.46a1.46,1.46,0,0,0-1,2.51L17.91,48.15.45,65A1.43,1.43,0,0,0,0,66v37.78a1.45,1.45,0,0,0,.89,1.34,1.42,1.42,0,0,0,1.58-.29L20,88l17.55,16.9a1.44,1.44,0,0,0,.61.35m7.56-68,11.41,11L45.07,59.78h0A32.75,32.75,0,0,0,45.74,37.16ZM46,67a5.87,5.87,0,0,1-1.84,4.27,6.43,6.43,0,0,1-4.5,1.79h0A6.2,6.2,0,0,1,33.29,67a5.87,5.87,0,0,1,1.84-4.26A6.43,6.43,0,0,1,39.63,61,6.21,6.21,0,0,1,46,67ZM5.08,31.74H39.89c6.36,10.14,5.08,19.9,2.54,26.75a9.53,9.53,0,0,0-2.8-.42,9.42,9.42,0,0,0-5.44,1.71ZM20,50.18,32,61.75A36.42,36.42,0,0,0,8.68,61.1Zm-17.1,50.2V66.86C13.47,60.73,23.64,62,30.78,64.4a8.72,8.72,0,0,0,1.33,7.87Zm30.61-3.45-11.41-11L34.2,74.31h0A32.81,32.81,0,0,0,33.53,96.93Zm40.66,5.42H39.38C33,92.22,34.3,82.45,36.84,75.6a9.51,9.51,0,0,0,2.79.42h0a9.42,9.42,0,0,0,5.44-1.71ZM59.25,83.91l-12-11.57a39.09,39.09,0,0,0,12.9,2.28A34.33,34.33,0,0,0,70.6,73Zm17.1-16.68c-10.55,6.13-20.72,4.9-27.86,2.46a8.72,8.72,0,0,0-1.33-7.87L76.35,33.71V67.23Z"/></g></g></svg>