<svg width="37" height="38" viewBox="0 0 37 38" fill="none" xmlns="http://www.w3.org/2000/svg">
<g clip-path="url(#clip0_117_606)">
<path d="M8.13186 22.6044L6.85464 27.3724L2.18644 27.4712C0.791328 24.8836 0 21.923 0 18.7769C0 15.7346 0.739872 12.8657 2.05135 10.3396H2.05235L6.20836 11.1015L8.02895 15.2326C7.6479 16.3435 7.44022 17.536 7.44022 18.7769C7.44036 20.1236 7.68431 21.414 8.13186 22.6044Z" fill="#FBBB00"/>
<path d="M36.3718 15.3495C36.5825 16.4594 36.6924 17.6055 36.6924 18.7769C36.6924 20.0904 36.5543 21.3716 36.2912 22.6075C35.3981 26.813 33.0645 30.4853 29.8317 33.084L29.8307 33.083L24.596 32.8159L23.8551 28.191C26.0002 26.933 27.6766 24.9642 28.5597 22.6075H18.7494V15.3495H28.7028H36.3718Z" fill="#518EF8"/>
<path d="M29.831 33.083L29.832 33.084C26.688 35.6111 22.694 37.1232 18.3464 37.1232C11.3597 37.1232 5.28526 33.218 2.18652 27.4712L8.13195 22.6044C9.68128 26.7394 13.6701 29.6829 18.3464 29.6829C20.3564 29.6829 22.2395 29.1395 23.8553 28.1909L29.831 33.083Z" fill="#28B446"/>
<path d="M30.0568 4.65424L24.1134 9.52002C22.4411 8.47471 20.4642 7.87086 18.3464 7.87086C13.5642 7.87086 9.50081 10.9494 8.02909 15.2326L2.05243 10.3396H2.05142C5.10479 4.45264 11.2558 0.430573 18.3464 0.430573C22.7979 0.430573 26.8794 2.01624 30.0568 4.65424Z" fill="#F14336"/>
</g>
<defs>
<clipPath id="clip0_117_606">
<rect width="36.6926" height="36.6926" fill="white" transform="translate(0 0.430573)"/>
</clipPath>
</defs>
</svg>
