<svg width="32" height="29" viewBox="0 0 32 29" fill="none" xmlns="http://www.w3.org/2000/svg">
<path d="M21.3333 7.25002V6.28335C21.3333 4.92989 21.3333 4.25316 21.0427 3.73621C20.787 3.28148 20.3791 2.91178 19.8773 2.68009C19.3069 2.41669 18.5601 2.41669 17.0667 2.41669H14.9333C13.4399 2.41669 12.6931 2.41669 12.1227 2.68009C11.6209 2.91178 11.213 3.28148 10.9573 3.73621C10.6667 4.25316 10.6667 4.92989 10.6667 6.28335V7.25002M13.3333 13.8959V19.9375M18.6667 13.8959V19.9375M4 7.25002H28M25.3333 7.25002V20.7834C25.3333 22.8135 25.3333 23.8286 24.8974 24.6041C24.5139 25.2862 23.9019 25.8407 23.1493 26.1883C22.2936 26.5834 21.1735 26.5834 18.9333 26.5834H13.0667C10.8265 26.5834 9.70635 26.5834 8.8507 26.1883C8.09806 25.8407 7.48613 25.2862 7.10264 24.6041C6.66667 23.8286 6.66667 22.8135 6.66667 20.7834V7.25002" stroke="#FF0000" stroke-width="2" stroke-linecap="round" stroke-linejoin="round"/>
</svg>
